{"title":"Killer Elite 2011 BRRiP XviD READNFO AC3  - MiSTERE","uid":6786724,"size":3691379429,"categoryP":"video","categoryS":"movies","magnet":"?xt=urn:btih:3ec887013e16891da307feaa8408beff6efbe080&amp;dn=Killer+Elite+2011+BRRiP+XviD+READNFO+AC3++-+MiSTERE&amp;tr=udp%3A%2F%2Ftracker.openbittorrent.com%3A80&amp;tr=udp%3A%2F%2Fopen.demonii.com%3A1337&amp;tr=udp%3A%2F%2Ftracker.coppersurfer.tk%3A6969&amp;tr=udp%3A%2F%2Fexodus.desync.com%3A6969","seeders":0,"leechers":0,"uploader":"TvTeam","files":128,"time":1320120781,"description":". \n &lt;a href=&quot;\nhttp://www.torrenting.com&quot; rel=&quot;nofollow&quot; target=&quot;_NEW&quot;&gt;\nhttp://www.torrenting.com&lt;/a&gt;          :     Once &amp; For all ;)\n\n\n               www . Torrenting . Com \n\n(((((((((((((= Enjoy No RAR releases =))))))))))))))))))))\n\n\n...................................NFO:....................................\n\n.Killer Elite 2011 BRRiP XviD READNFO AC3  - MiSTERE\n &lt;a href=&quot;\nhttp://www.imdb.com/title/tt1448755/&quot; rel=&quot;nofollow&quot; target=&quot;_NEW&quot;&gt;\nhttp://www.imdb.com/title/tt1448755/&lt;/a&gt;\n\nVideo\nID                               : 0\nFormat                           : MPEG-4 Visual\nFormat profile                   : Advanced Simple@L5\nFormat settings, BVOP            : 2\nFormat settings, QPel            : No\nFormat settings, GMC             : No warppoints\nFormat settings, Matrix          : Default (H.263)\nMuxing mode                      : Packed bitstream\nCodec ID                         : XVID\nCodec ID/Hint                    : XviD\nDuration                         : 1h 56mn\nBit rate                         : 1 895 Kbps\nWidth                            : 720 pixels\nHeight                           : 304 pixels\nDisplay aspect ratio             : 2.35:1\nFrame rate                       : 29.970 fps\nColor space                      : YUV\nChroma subsampling               : 4:2:0\nBit depth                        : 8 bits\nScan type                        : Progressive\nCompression mode                 : Lossy\nBits/(Pixel*Frame)               : 0.289\nStream size                      : 1.54 GiB (90%)\nWriting library                  : XviD 64\n\nAudio\nID                               : 1\nFormat                           : AC-3\nFormat/Info                      : Audio Coding 3\nMode extension                   : CM (complete main)\nCodec ID                         : 2000\nDuration                         : 1h 56mn\nBit rate mode                    : Constant\nBit rate                         : 192 Kbps\nChannel(s)                       : 2 channels\nChannel positions                : Front: L R\nSampling rate                    : 48.0 KHz\nBit depth                        : 16 bits\nCompression mode                 : Lossy\nStream size                      : 160 MiB (9%)\nAlignment                        : Aligned on interleaves\nInterleave, duration             : 33 ms (1.00 video frame)\n\n\nSharpened Resized and tweaked RGB\n*Subs hardcoded in Korean throughout\n\n[IMG]http://i.imgur.com/hky2x.png[/IMG]\n[IMG]http://i.imgur.com/F1D96.png[/IMG]\n[IMG]http://i.imgur.com/Mcm70.png[/IMG]\n[IMG]http://i.imgur.com/r9TpJ.png[/IMG]\n[IMG]http://i.imgur.com/p3vxo.png[/IMG]","torrent":{"xt":"urn:btih:3ec887013e16891da307feaa8408beff6efbe080","amp;dn":"Killer+Elite+2011+BRRiP+XviD+READNFO+AC3++-+MiSTERE","amp;tr":["udp%3A%2F%2Ftracker.openbittorrent.com%3A80","udp%3A%2F%2Fopen.demonii.com%3A1337","udp%3A%2F%2Ftracker.coppersurfer.tk%3A6969","udp%3A%2F%2Fexodus.desync.com%3A6969"],"infoHash":"3ec887013e16891da307feaa8408beff6efbe080","infoHashBuffer":{"type":"Buffer","data":[62,200,135,1,62,22,137,29,163,7,254,170,132,8,190,255,110,251,224,128]},"announce":[],"urlList":[]}}